<svg width="2691" height="938" viewBox="0 0 2691 938" fill="none" xmlns="http://www.w3.org/2000/svg">
<rect x="427" y="651" width="131" height="287" rx="65.5" fill="#0A543D"/>
<rect x="427" y="651" width="131" height="287" rx="65.5" fill="#0A543D"/>
<rect x="1483" y="651" width="131" height="287" rx="65.5" fill="#0A543D"/>
<rect x="1483" y="651" width="131" height="287" rx="65.5" fill="#0A543D"/>
<rect y="651" width="131" height="287" rx="65.5" fill="#0A543D"/>
<rect y="651" width="131" height="287" rx="65.5" fill="#0A543D"/>
<rect x="203" y="339" width="133" height="599" rx="66.5" fill="#0A543D"/>
<rect x="203" y="339" width="133" height="599" rx="66.5" fill="#0A543D"/>
<rect x="630" y="234" width="133" height="704" rx="66.5" fill="#0A543D"/>
<rect x="630" y="234" width="133" height="704" rx="66.5" fill="#0A543D"/>
<rect x="854" y="509" width="133" height="429" rx="66.5" fill="#0A543D"/>
<rect x="854" y="509" width="133" height="429" rx="66.5" fill="#0A543D"/>
<rect x="1059" width="135" height="938" rx="67.5" fill="#0A543D"/>
<rect x="1059" width="135" height="938" rx="67.5" fill="#0A543D"/>
<rect x="2132" width="135" height="938" rx="67.5" fill="#0A543D"/>
<rect x="2132" width="135" height="938" rx="67.5" fill="#0A543D"/>
<rect x="1271" y="339" width="135" height="599" rx="67.5" fill="#0A543D"/>
<rect x="1271" y="339" width="135" height="599" rx="67.5" fill="#0A543D"/>
<rect x="1691" y="390" width="135" height="548" rx="67.5" fill="#0A543D"/>
<rect x="1691" y="390" width="135" height="548" rx="67.5" fill="#0A543D"/>
<rect x="2337" y="437" width="135" height="501" rx="67.5" fill="#0A543D"/>
<rect x="2337" y="437" width="135" height="501" rx="67.5" fill="#0A543D"/>
<rect x="2556" y="273" width="135" height="665" rx="67.5" fill="#0A543D"/>
<rect x="2556" y="273" width="135" height="665" rx="67.5" fill="#0A543D"/>
<rect x="1917" y="604" width="135" height="334" rx="67.5" fill="#0A543D"/>
<rect x="1917" y="604" width="135" height="334" rx="67.5" fill="#0A543D"/>
</svg>
